<svg width="6843" height="1572" viewBox="0 0 6843 1572" fill="none" xmlns="http://www.w3.org/2000/svg">
<g clip-path="url(#clip0_501_2)">
<path d="M4114.5 1346L3981 575L3859.5 1346H3769.5L3934.5 296C3871.5 310 3823 340.5 3789 387.5C3755 433.5 3738 498.5 3738 582.5C3738 616.5 3740 644.5 3744 666.5C3749 687.5 3754.5 704.5 3760.5 717.5C3766.5 730.5 3772.5 740 3778.5 746C3785.5 751 3790.5 754.5 3793.5 756.5C3739.5 756.5 3696 743 3663 716C3630 688 3613.5 644.5 3613.5 585.5C3613.5 536.5 3625.5 490 3649.5 446C3673.5 401 3704 362 3741 329C3778 296 3818.5 270 3862.5 251C3907.5 231 3951 221 3993 221C4009 221 4024.5 222.5 4039.5 225.5C4055.5 228.5 4070.5 234 4084.5 242L4234.5 1113.5L4410 242H4581L4665 1346H4494L4434 560L4275 1346H4114.5ZM5332.43 596V1106C5332.43 1116 5332.93 1128.5 5333.93 1143.5C5334.93 1158.5 5337.43 1173.5 5341.43 1188.5C5346.43 1202.5 5353.43 1215 5362.43 1226C5371.43 1236 5383.93 1241 5399.93 1241C5448.93 1241 5484.93 1186.5 5507.93 1077.5H5563.43C5552.43 1140.5 5538.43 1190.5 5521.43 1227.5C5504.43 1263.5 5486.43 1291 5467.43 1310C5448.43 1329 5428.93 1341 5408.93 1346C5388.93 1352 5370.93 1355 5354.93 1355C5331.93 1355 5311.93 1351 5294.93 1343C5278.93 1335 5264.93 1324.5 5252.93 1311.5C5241.93 1298.5 5232.93 1283.5 5225.93 1266.5C5218.93 1249.5 5213.43 1231.5 5209.43 1212.5C5194.43 1251.5 5169.93 1285 5135.93 1313C5102.93 1341 5062.43 1355 5014.43 1355C4984.43 1355 4953.93 1349 4922.93 1337C4892.93 1325 4865.43 1305.5 4840.43 1278.5C4816.43 1250.5 4796.43 1215 4780.43 1172C4765.43 1128 4757.93 1074.5 4757.93 1011.5C4757.93 965.5 4762.93 917.5 4772.93 867.5C4783.93 817.5 4800.93 772 4823.93 731C4846.93 690 4876.43 656 4912.43 629C4948.43 602 4991.93 588.5 5042.93 588.5C5054.93 588.5 5067.43 590 5080.43 593C5094.43 595 5107.43 599 5119.43 605C5132.43 611 5144.43 619.5 5155.43 630.5C5166.43 640.5 5175.43 653 5182.43 668V596H5332.43ZM5051.93 1241C5066.93 1241 5081.93 1237 5096.93 1229C5112.93 1220 5126.93 1208.5 5138.93 1194.5C5151.93 1179.5 5162.43 1162 5170.43 1142C5178.43 1122 5182.43 1100.5 5182.43 1077.5V735.5C5175.43 719.5 5164.43 705 5149.43 692C5135.43 678 5116.93 671 5093.93 671C5061.93 671 5034.43 682 5011.43 704C4988.43 725 4969.93 752 4955.93 785C4941.93 817 4931.43 852.5 4924.43 891.5C4918.43 929.5 4915.43 966 4915.43 1001C4915.43 1087 4926.93 1148.5 4949.93 1185.5C4973.93 1222.5 5007.93 1241 5051.93 1241ZM5656.96 296V840.5L5914.96 596H6060.46L5809.96 798.5H5824.96C5869.96 798.5 5905.46 806 5931.46 821C5958.46 836 5978.96 855.5 5992.96 879.5C6007.96 902.5 6017.46 928 6021.46 956C6026.46 983 6028.96 1008.5 6028.96 1032.5C6028.96 1042.5 6028.46 1054 6027.46 1067C6027.46 1079 6026.96 1091.5 6025.96 1104.5C6025.96 1116.5 6025.46 1128 6024.46 1139C6024.46 1149 6024.46 1157 6024.46 1163C6024.46 1170 6024.96 1178 6025.96 1187C6026.96 1196 6029.46 1204.5 6033.46 1212.5C6037.46 1220.5 6043.46 1227.5 6051.46 1233.5C6059.46 1238.5 6069.96 1241 6082.96 1241C6108.96 1241 6130.96 1228 6148.96 1202C6167.96 1176 6183.46 1134.5 6195.46 1077.5H6250.96C6238.96 1142.5 6224.46 1193.5 6207.46 1230.5C6190.46 1266.5 6171.96 1294 6151.96 1313C6132.96 1332 6113.46 1343.5 6093.46 1347.5C6074.46 1352.5 6057.46 1355 6042.46 1355C6012.46 1355 5986.46 1350.5 5964.46 1341.5C5943.46 1332.5 5925.96 1320.5 5911.96 1305.5C5898.96 1289.5 5888.96 1271 5881.96 1250C5875.96 1229 5872.96 1207 5872.96 1184C5872.96 1180 5872.96 1171.5 5872.96 1158.5C5872.96 1144.5 5872.96 1130 5872.96 1115C5873.96 1100 5874.46 1086 5874.46 1073C5874.46 1059 5874.46 1049.5 5874.46 1044.5C5874.46 992.5 5864.96 957.5 5845.96 939.5C5826.96 921.5 5804.96 912.5 5779.96 912.5C5753.96 912.5 5730.46 921 5709.46 938C5689.46 955 5671.96 985 5656.96 1028V1346H5506.96V317L5656.96 296ZM6662 783.5C6662 853.5 6633 912 6575 959C6518 1006 6438.5 1035 6336.5 1046C6340.5 1086 6347.5 1118.5 6357.5 1143.5C6368.5 1168.5 6381.5 1188.5 6396.5 1203.5C6411.5 1217.5 6428.5 1227.5 6447.5 1233.5C6467.5 1238.5 6488 1241 6509 1241C6541 1241 6571 1235.5 6599 1224.5C6628 1213.5 6652 1194.5 6671 1167.5C6672 1174.5 6672.5 1181.5 6672.5 1188.5C6673.5 1194.5 6674 1200 6674 1205C6674 1228 6668 1248.5 6656 1266.5C6645 1284.5 6629.5 1300.5 6609.5 1314.5C6590.5 1327.5 6568 1337.5 6542 1344.5C6517 1351.5 6490.5 1355 6462.5 1355C6428.5 1355 6394.5 1349 6360.5 1337C6326.5 1324 6295.5 1304 6267.5 1277C6240.5 1249 6218.5 1213 6201.5 1169C6184.5 1125 6176 1071.5 6176 1008.5C6176 966.5 6180.5 921 6189.5 872C6199.5 823 6215.5 777.5 6237.5 735.5C6260.5 693.5 6290 658.5 6326 630.5C6363 602.5 6408.5 588.5 6462.5 588.5C6487.5 588.5 6511.5 591.5 6534.5 597.5C6558.5 602.5 6580 612.5 6599 627.5C6618 641.5 6633 661 6644 686C6656 711 6662 743.5 6662 783.5ZM6335 987.5C6406 976.5 6462 951.5 6503 912.5C6545 873.5 6566 825.5 6566 768.5C6566 730.5 6559.5 703.5 6546.5 687.5C6533.5 670.5 6515 662 6491 662C6465 662 6442 672 6422 692C6403 712 6387 738 6374 770C6361 801 6351 836 6344 875C6338 913 6335 950.5 6335 987.5Z" fill="#E5383B"/>
<path d="M929 401C893 401 854 397.5 812 390.5C771 383.5 728 375 683 365V1346H521V341C510 339 499.5 338 489.5 338C480.5 338 471 338 461 338C377 338 312.5 353.5 267.5 384.5C223.5 414.5 201.5 469.5 201.5 549.5C201.5 609.5 208 655.5 221 687.5C235 718.5 249 742 263 758C238 758 214.5 754.5 192.5 747.5C171.5 739.5 153 727 137 710C121 693 108.5 671 99.5 644C90.5 616 86 581.5 86 540.5C86 499.5 94 460 110 422C126 384 151.5 350.5 186.5 321.5C222.5 291.5 268.5 267.5 324.5 249.5C381.5 231.5 451 222.5 533 222.5C573 222.5 609 224.5 641 228.5C674 231.5 704.5 235.5 732.5 240.5C761.5 244.5 790 248.5 818 252.5C846 255.5 875.5 257 906.5 257C948.5 257 983.5 254 1011.5 248C1040.5 241 1064.5 233.5 1083.5 225.5C1086.5 243.5 1088 260.5 1088 276.5C1088 359.5 1035 401 929 401ZM1428.5 596V1106C1428.5 1116 1429 1128.5 1430 1143.5C1431 1158.5 1433.5 1173.5 1437.5 1188.5C1442.5 1202.5 1449.5 1215 1458.5 1226C1467.5 1236 1480 1241 1496 1241C1545 1241 1581 1186.5 1604 1077.5H1659.5C1648.5 1140.5 1634.5 1190.5 1617.5 1227.5C1600.5 1263.5 1582.5 1291 1563.5 1310C1544.5 1329 1525 1341 1505 1346C1485 1352 1467 1355 1451 1355C1428 1355 1408 1351 1391 1343C1375 1335 1361 1324.5 1349 1311.5C1338 1298.5 1329 1283.5 1322 1266.5C1315 1249.5 1309.5 1231.5 1305.5 1212.5C1290.5 1251.5 1266 1285 1232 1313C1199 1341 1158.5 1355 1110.5 1355C1080.5 1355 1050 1349 1019 1337C989 1325 961.5 1305.5 936.5 1278.5C912.5 1250.5 892.5 1215 876.5 1172C861.5 1128 854 1074.5 854 1011.5C854 965.5 859 917.5 869 867.5C880 817.5 897 772 920 731C943 690 972.5 656 1008.5 629C1044.5 602 1088 588.5 1139 588.5C1151 588.5 1163.5 590 1176.5 593C1190.5 595 1203.5 599 1215.5 605C1228.5 611 1240.5 619.5 1251.5 630.5C1262.5 640.5 1271.5 653 1278.5 668V596H1428.5ZM1148 1241C1163 1241 1178 1237 1193 1229C1209 1220 1223 1208.5 1235 1194.5C1248 1179.5 1258.5 1162 1266.5 1142C1274.5 1122 1278.5 1100.5 1278.5 1077.5V735.5C1271.5 719.5 1260.5 705 1245.5 692C1231.5 678 1213 671 1190 671C1158 671 1130.5 682 1107.5 704C1084.5 725 1066 752 1052 785C1038 817 1027.5 852.5 1020.5 891.5C1014.5 929.5 1011.5 966 1011.5 1001C1011.5 1087 1023 1148.5 1046 1185.5C1070 1222.5 1104 1241 1148 1241ZM1753.03 296V840.5L2011.03 596H2156.53L1906.03 798.5H1921.03C1966.03 798.5 2001.53 806 2027.53 821C2054.53 836 2075.03 855.5 2089.03 879.5C2104.03 902.5 2113.53 928 2117.53 956C2122.53 983 2125.03 1008.5 2125.03 1032.5C2125.03 1042.5 2124.53 1054 2123.53 1067C2123.53 1079 2123.03 1091.5 2122.03 1104.5C2122.03 1116.5 2121.53 1128 2120.53 1139C2120.53 1149 2120.53 1157 2120.53 1163C2120.53 1170 2121.03 1178 2122.03 1187C2123.03 1196 2125.53 1204.5 2129.53 1212.5C2133.53 1220.5 2139.53 1227.5 2147.53 1233.5C2155.53 1238.5 2166.03 1241 2179.03 1241C2205.03 1241 2227.03 1228 2245.03 1202C2264.03 1176 2279.53 1134.5 2291.53 1077.5H2347.03C2335.03 1142.5 2320.53 1193.5 2303.53 1230.5C2286.53 1266.5 2268.03 1294 2248.03 1313C2229.03 1332 2209.53 1343.5 2189.53 1347.5C2170.53 1352.5 2153.53 1355 2138.53 1355C2108.53 1355 2082.53 1350.5 2060.53 1341.5C2039.53 1332.5 2022.03 1320.5 2008.03 1305.5C1995.03 1289.5 1985.03 1271 1978.03 1250C1972.03 1229 1969.03 1207 1969.03 1184C1969.03 1180 1969.03 1171.5 1969.03 1158.5C1969.03 1144.5 1969.03 1130 1969.03 1115C1970.03 1100 1970.53 1086 1970.53 1073C1970.53 1059 1970.53 1049.5 1970.53 1044.5C1970.53 992.5 1961.03 957.5 1942.03 939.5C1923.03 921.5 1901.03 912.5 1876.03 912.5C1850.03 912.5 1826.53 921 1805.53 938C1785.53 955 1768.03 985 1753.03 1028V1346H1603.03V317L1753.03 296ZM2758.07 783.5C2758.07 853.5 2729.07 912 2671.07 959C2614.07 1006 2534.57 1035 2432.57 1046C2436.57 1086 2443.57 1118.5 2453.57 1143.5C2464.57 1168.5 2477.57 1188.5 2492.57 1203.5C2507.57 1217.5 2524.57 1227.5 2543.57 1233.5C2563.57 1238.5 2584.07 1241 2605.07 1241C2637.07 1241 2667.07 1235.5 2695.07 1224.5C2724.07 1213.5 2748.07 1194.5 2767.07 1167.5C2768.07 1174.5 2768.57 1181.5 2768.57 1188.5C2769.57 1194.5 2770.07 1200 2770.07 1205C2770.07 1228 2764.07 1248.5 2752.07 1266.5C2741.07 1284.5 2725.57 1300.5 2705.57 1314.5C2686.57 1327.5 2664.07 1337.5 2638.07 1344.5C2613.07 1351.5 2586.57 1355 2558.57 1355C2524.57 1355 2490.57 1349 2456.57 1337C2422.57 1324 2391.57 1304 2363.57 1277C2336.57 1249 2314.57 1213 2297.57 1169C2280.57 1125 2272.07 1071.5 2272.07 1008.5C2272.07 966.5 2276.57 921 2285.57 872C2295.57 823 2311.57 777.5 2333.57 735.5C2356.57 693.5 2386.07 658.5 2422.07 630.5C2459.07 602.5 2504.57 588.5 2558.57 588.5C2583.57 588.5 2607.57 591.5 2630.57 597.5C2654.57 602.5 2676.07 612.5 2695.07 627.5C2714.07 641.5 2729.07 661 2740.07 686C2752.07 711 2758.07 743.5 2758.07 783.5ZM2431.07 987.5C2502.07 976.5 2558.07 951.5 2599.07 912.5C2641.07 873.5 2662.07 825.5 2662.07 768.5C2662.07 730.5 2655.57 703.5 2642.57 687.5C2629.57 670.5 2611.07 662 2587.07 662C2561.07 662 2538.07 672 2518.07 692C2499.07 712 2483.07 738 2470.07 770C2457.07 801 2447.07 836 2440.07 875C2434.07 913 2431.07 950.5 2431.07 987.5Z" fill="#F5F3F4"/>
<path d="M3214.5 842C3195.3 842 3182.7 848.9 3176.7 862.7C3170.7 875.9 3167.7 897.2 3167.7 926.6C3167.7 950.6 3174.9 983.3 3189.3 1024.7C3234.9 992.3 3257.7 958.7 3257.7 923.9C3257.7 901.7 3253.8 882.5 3246 866.3C3238.8 850.1 3228.3 842 3214.5 842ZM3467.4 1035.5V1054.4C3433.2 1054.4 3414.3 1060.1 3410.7 1071.5C3383.1 1159.7 3354.3 1224.2 3324.3 1265C3350.1 1292.6 3371.4 1306.4 3388.2 1306.4C3411 1306.4 3426.6 1304.3 3435 1300.1C3444 1295.9 3453.3 1286.9 3462.9 1273.1L3473.7 1282.1C3465.3 1304.9 3454.2 1322.9 3440.4 1336.1C3426.6 1348.7 3406.8 1355 3381 1355C3346.8 1355 3312.9 1341.2 3279.3 1313.6C3245.1 1341.2 3205.5 1355 3160.5 1355C3037.5 1355 2976 1313.9 2976 1231.7C2976 1213.1 2979.9 1196 2987.7 1180.4C2995.5 1164.2 3007.8 1148.9 3024.6 1134.5C3042 1120.1 3057 1108.7 3069.6 1100.3C3082.8 1091.3 3101.4 1079.6 3125.4 1065.2C3104.4 1007 3093.9 958.4 3093.9 919.4C3093.9 846.8 3128.1 810.5 3196.5 810.5C3225.9 810.5 3249.6 821 3267.6 842C3286.2 862.4 3295.5 886.1 3295.5 913.1C3295.5 942.5 3287.1 968.3 3270.3 990.5C3254.1 1012.7 3231.3 1035.2 3201.9 1058C3230.1 1127.6 3264.6 1188.8 3305.4 1241.6C3326.4 1208 3349.5 1150.4 3374.7 1068.8C3368.7 1059.2 3350.4 1054.4 3319.8 1054.4V1035.5H3467.4ZM3258.6 1294.7C3213.6 1249.7 3174.3 1186.1 3140.7 1103.9C3090.9 1141.7 3066 1177.4 3066 1211C3066 1281.8 3108.6 1317.2 3193.8 1317.2C3217.2 1317.2 3238.8 1309.7 3258.6 1294.7Z" fill="#F5F3F4"/>
</g>
<defs>
<clipPath id="clip0_501_2">
<rect width="6843" height="1572" fill="white"/>
</clipPath>
</defs>
</svg>
